
<svg xmlns="http://www.w3.org/2000/svg" viewBox="0 0 159.88 151.8"><defs><style>.cls-1{fill:#fe4350;}</style></defs><g id="Layer_2" data-name="Layer 2"><g id="Layer_1-2" data-name="Layer 1"><path class="cls-1" d="M152.1,105.64H51.16V50.9H35.63v62.28a7.69,7.69,0,0,0,7.76,7.55h88.46l-18.27,16h-98V46.16H116.47a8,8,0,0,0,5.18-1.92l35.63-31.07a7.52,7.52,0,0,0,2.13-8.29A7.9,7.9,0,0,0,152.1,0H43.39a7.69,7.69,0,0,0-7.76,7.55V26.34H51.16V15.09h80.69l-18.27,16H7.76A7.69,7.69,0,0,0,0,38.62V144.25a7.69,7.69,0,0,0,7.76,7.55H116.47a8,8,0,0,0,5.18-1.92l35.63-31.07a7.52,7.52,0,0,0,2.13-8.29A7.9,7.9,0,0,0,152.1,105.64Z"/></g></g></svg>