
<svg xmlns="http://www.w3.org/2000/svg" viewBox="0 0 625.2 625.2"><defs><style>.cls-1{fill:#fff;}</style></defs><g id="Layer_2" data-name="Layer 2"><g id="Layer_1-2" data-name="Layer 1"><g id="Layer_1-3" data-name="Layer 1"><path class="cls-1" d="M183.7,355.9A81.25,81.25,0,0,0,233.4,339l-114-114a80.42,80.42,0,0,0-16.9,49.7A81.32,81.32,0,0,0,183.7,355.9Z"/><path class="cls-1" d="M522.6,274.6a81.25,81.25,0,0,0-16.9-49.7l-114,113.9a80.42,80.42,0,0,0,49.7,16.9C486.2,355.9,522.6,319.4,522.6,274.6Z"/><path class="cls-1" d="M580,150.5l-50.4,50.4A114.94,114.94,0,0,1,367.7,362.8L312.5,418l-55.2-55.2A114.94,114.94,0,0,1,95.4,200.9L69.6,175.1,45.1,150.6A312,312,0,0,0,0,312.6C0,485.2,139.9,625.2,312.6,625.2S625.2,485.3,625.2,312.6A313.39,313.39,0,0,0,580,150.5Z"/><path class="cls-1" d="M538.6,96.8a312.46,312.46,0,0,0-452.2,0c-7.7,8.2-15,16.7-21.9,25.6l248,248.2,248-248.2A279.27,279.27,0,0,0,538.6,96.8ZM312.5,40.9c73.2,0,141.1,28.2,192.2,79.6L312.5,312.7,120.3,120.5C171.4,69,239.4,40.9,312.5,40.9Z"/></g></g></g></svg>