
<svg xmlns="http://www.w3.org/2000/svg" viewBox="0 0 238.4 303.19"><defs><style>.cls-1{fill:#52c7c7;}.cls-1,.cls-2{fill-rule:evenodd;}.cls-2{fill:#f3b404;}</style></defs><g id="Layer_2" data-name="Layer 2"><g id="moonriver"><g id="svgg"><path id="path0" class="cls-1" d="M4.48,94.27c-.69,1.24-.6,1.9.15,1.15a1.7,1.7,0,0,0,.48-1.33c-.13-.61-.21-.59-.63.18M55,126.38a5.93,5.93,0,0,1-2.8.41c-1.74,0-2.75.19-3.15.6a3.92,3.92,0,0,1-2.41.6,3.61,3.61,0,0,0-2,.4,2.06,2.06,0,0,1-1.42.4c-.65,0-1.18.18-1.18.4s-.71.4-1.58.4a3,3,0,0,0-1.82.4,1.64,1.64,0,0,1-1.2.4,1.64,1.64,0,0,0-1.2.4,1.61,1.61,0,0,1-1.19.4c-.87,0-5.92,2.41-6.79,3.24a2.14,2.14,0,0,1-1.25.36,2,2,0,0,0-1.38.61,6.14,6.14,0,0,1-1.85,1.2L21,137.81c-.77.34-1.4.78-1.4,1s-.37.47-.81.62A5.75,5.75,0,0,0,17,140.62a3.19,3.19,0,0,1-1.51,1,4,4,0,0,0-1.69,1.2,4.21,4.21,0,0,1-1.61,1.2,2.36,2.36,0,0,0-1.19.8,2.4,2.4,0,0,1-1.19.8,3.23,3.23,0,0,0-1.41,1,3.23,3.23,0,0,1-1.41,1,2.4,2.4,0,0,0-1.19.8,2.41,2.41,0,0,1-1.17.8,10.15,10.15,0,0,0-2.54,2l-2.09,2v3.38c0,3.59.25,4.35,2.18,6.47,2.12,2.34,9.06,1.86,11.47-.79a2.12,2.12,0,0,1,1.23-.71,2.36,2.36,0,0,0,1.32-.8,2.38,2.38,0,0,1,1.2-.8,2.38,2.38,0,0,0,1.2-.8,2.38,2.38,0,0,1,1.2-.8,2.38,2.38,0,0,0,1.2-.8,2.37,2.37,0,0,1,1.26-.8,2.8,2.8,0,0,0,1.41-1,3,3,0,0,1,1.33-1,4.2,4.2,0,0,0,1.6-1.2,4.2,4.2,0,0,1,1.6-1.2,13.77,13.77,0,0,0,5.12-2.85,1.63,1.63,0,0,1,1.15-.75,1.2,1.2,0,0,0,.93-.4,1.32,1.32,0,0,1,1-.4,6.16,6.16,0,0,0,2.19-.8,6.25,6.25,0,0,1,2.39-.8,1.65,1.65,0,0,0,1.21-.4,1.64,1.64,0,0,1,1.2-.4,1.64,1.64,0,0,0,1.2-.4,1.64,1.64,0,0,1,1.2-.4,1.62,1.62,0,0,0,1.17-.36,3.7,3.7,0,0,1,1.73-.58c4.29-.63,5.76-1,6.19-1.39a6,6,0,0,1,2.79-.47c1.28,0,2.32-.18,2.32-.4s3.19-.4,8.78-.4c5.42,0,8.87.15,9,.4a3.61,3.61,0,0,0,2,.4,4,4,0,0,1,2.41.6,4.3,4.3,0,0,0,2.74.6,4.67,4.67,0,0,1,2.4.4,2.46,2.46,0,0,0,1.6.4,2.46,2.46,0,0,1,1.6.4,2.47,2.47,0,0,0,1.61.4,6.84,6.84,0,0,1,2.79.8,6.28,6.28,0,0,0,2,.8,6.28,6.28,0,0,1,2,.8,6.13,6.13,0,0,0,2.2.8c.84,0,4.12,1.69,5.4,2.79a11.49,11.49,0,0,0,2.21,1.32,8.87,8.87,0,0,1,2.37,1.67,3.21,3.21,0,0,0,1.53,1,2.5,2.5,0,0,1,1.36,1,2.56,2.56,0,0,0,1.3,1,2.35,2.35,0,0,1,1.23.8,2.4,2.4,0,0,0,1.37.8,1.89,1.89,0,0,1,1.23.8,1.89,1.89,0,0,0,1.23.8,2.4,2.4,0,0,1,1.37.8,2.4,2.4,0,0,0,1.19.8,3.23,3.23,0,0,1,1.41,1,3.23,3.23,0,0,0,1.41,1,2.36,2.36,0,0,1,1.19.8,2.36,2.36,0,0,0,1.19.8,4.21,4.21,0,0,1,1.61,1.2,4,4,0,0,0,1.72,1.2,2.52,2.52,0,0,1,1.35,1,2.54,2.54,0,0,0,1.31,1,1.63,1.63,0,0,1,1,.59,7.42,7.42,0,0,0,3.47,1.81c.3,0,.54.15.54.33,0,.44,3.11,2.07,4,2.07a1.84,1.84,0,0,1,1.06.35,16.12,16.12,0,0,0,5,2.45,1.32,1.32,0,0,1,1,.4,2,2,0,0,0,1.4.4,2,2,0,0,1,1.4.4,1.64,1.64,0,0,0,1.2.4,1.64,1.64,0,0,1,1.2.4,3,3,0,0,0,1.82.4c.87,0,1.58.18,1.58.4s.89.4,2,.4a4.13,4.13,0,0,1,2.22.4,5.05,5.05,0,0,0,2.52.41,6.25,6.25,0,0,1,3.06.6c1.16.89,23.49.88,24.22,0,.34-.41,1.24-.6,2.82-.6a5.31,5.31,0,0,0,2.58-.4,4.06,4.06,0,0,1,2.2-.4,4.06,4.06,0,0,0,2.2-.4,2,2,0,0,1,1.41-.4,6.5,6.5,0,0,0,2.59-.8,6.49,6.49,0,0,1,2.6-.8,6.49,6.49,0,0,0,2.6-.8,6.15,6.15,0,0,1,2.13-.8A1.89,1.89,0,0,0,215,176a18.15,18.15,0,0,1,4.79-2.45c.33,0,.59-.18.59-.4s.36-.4.8-.4.8-.16.8-.35a5.84,5.84,0,0,1,2.1-1.42,30.91,30.91,0,0,0,3.9-2.45,19.47,19.47,0,0,1,2.6-1.73,7.05,7.05,0,0,0,1.77-1.41,3.42,3.42,0,0,1,1.41-1,10.16,10.16,0,0,0,2.53-2.11l2.09-2.11V156.7c0-1.9-.18-3.57-.4-3.71a1.23,1.23,0,0,1-.4-1,2.54,2.54,0,0,0-2.13-2c-.37,0-.67-.18-.67-.4,0-1.39-8.7-.17-10,1.41a1.56,1.56,0,0,1-1,.59,3.24,3.24,0,0,0-1.42,1,3.27,3.27,0,0,1-1.4,1,3.32,3.32,0,0,0-1.42,1,8.53,8.53,0,0,1-2.37,1.63c-2.92,1.27-5.43,2.68-6.06,3.4a2.27,2.27,0,0,1-1.49.74,6.16,6.16,0,0,0-2.26.8,6.16,6.16,0,0,1-2.19.8,1.32,1.32,0,0,0-1,.4,2,2,0,0,1-1.4.4,2,2,0,0,0-1.4.4,1.53,1.53,0,0,1-1.14.4A2.19,2.19,0,0,0,199,164a5.8,5.8,0,0,1-2.18.58c-4,.47-6.17,1-6.31,1.4s-22.09.67-22.09.11-3.61-1.65-5-1.65a1.72,1.72,0,0,1-1.25-.4,2.46,2.46,0,0,0-1.6-.4,2.46,2.46,0,0,1-1.6-.4,1.65,1.65,0,0,0-1.21-.4,6.25,6.25,0,0,1-2.39-.8,6.16,6.16,0,0,0-2.19-.8,1.32,1.32,0,0,1-1-.4,1.34,1.34,0,0,0-1-.4c-.43,0-.78-.13-.78-.3a13.05,13.05,0,0,0-3-1.86,11.83,11.83,0,0,1-3-1.9c0-.19-.34-.34-.75-.34a2,2,0,0,1-1.29-.64,4.48,4.48,0,0,0-1.34-1,18.7,18.7,0,0,1-2.62-1.76,18.7,18.7,0,0,0-2.62-1.76,4.21,4.21,0,0,1-1.35-1,1.72,1.72,0,0,0-1-.64,2.36,2.36,0,0,1-1.21-.8,2.34,2.34,0,0,0-1.28-.8,3,3,0,0,1-1.43-.79c-3-2.66-4.26-3.61-4.84-3.61-.36,0-.65-.16-.65-.35s-.59-.65-1.3-1a25.08,25.08,0,0,1-3.1-2,32.28,32.28,0,0,0-4.25-2.58,13.88,13.88,0,0,1-2.95-1.81,1.83,1.83,0,0,0-1.25-.61c-.41,0-.75-.17-.75-.38s-.68-.57-1.5-.8a22,22,0,0,1-3.47-1.41,9.29,9.29,0,0,0-2.67-1,1.25,1.25,0,0,1-1-.4,2.06,2.06,0,0,0-1.42-.4c-.65,0-1.18-.18-1.18-.4s-.71-.4-1.58-.4a3,3,0,0,1-1.82-.4,1.64,1.64,0,0,0-1.2-.4,1.64,1.64,0,0,1-1.2-.4,2.89,2.89,0,0,0-1.78-.4,3.17,3.17,0,0,1-2-.57c-.85-1-34-2-34.61-1m16.28,27.8a9.31,9.31,0,0,0-3.5,3.55c-.81,1.63-.9,138.91-.09,140.37a23.07,23.07,0,0,0,2.48,3l2,2.1h3.32c1.94,0,3.31-.16,3.31-.4s.32-.4.72-.4c1.11,0,3.68-2.85,3.68-4.09a1.84,1.84,0,0,1,.4-1.31c.26-.16.4-23.67.4-69.22,0-45.72-.14-69-.4-69s-.4-.32-.4-.71a6.93,6.93,0,0,0-1.91-2.6l-1.92-1.89-3.58,0a13.89,13.89,0,0,0-4.5.55M43,156.49a22.45,22.45,0,0,0-2.49,3c-.73,1.3-.73,72.5,0,73.81a18.66,18.66,0,0,0,2.08,2.59l1.59,1.7h7.66l1.59-1.7a18.66,18.66,0,0,0,2.08-2.59c.73-1.31.73-72.51,0-73.81a22.45,22.45,0,0,0-2.49-3l-2-2.1H45l-2,2.1m54.7,10c-1.56,1.58-2.09,2.42-2.1,3.3a4,4,0,0,1-.6,2c-.89,1.16-.89,48.88,0,50a3.09,3.09,0,0,1,.6,1.46,9.69,9.69,0,0,0,2.52,4.4c.66.58,1.57.71,5,.71h4.13l1.26-1.3a20.91,20.91,0,0,0,2.2-2.79l.95-1.49v-26c0-29.34.32-26.47-3.36-30.3l-2-2.1H99.77l-2.08,2.11M14.5,171.24a4.93,4.93,0,0,0-1.7,2.57,1.57,1.57,0,0,1-.4,1.18c-.26.16-.4,9.34-.4,26.23,0,17.05.14,26,.4,26s.4.52.4,1.15c0,.89.52,1.63,2.22,3.2l2.22,2.05h6l2.17-2.06c3.64-3.43,3.38-1.14,3.38-30V176l-1-2.08c-2-4-2.48-4.29-7.34-4.29H16.19l-1.69,1.65m112.9,9.95a1.1,1.1,0,0,1-.85.4,5.26,5.26,0,0,0-3,2.95,1.08,1.08,0,0,1-.4.85c-.69.43-.52,18.64.18,20.05,2.37,4.75,10,5.8,13.44,1.86,1.93-2.19,2-2.5,2-12.09,0-10.73-.3-11.68-4.3-13.92-1.06-.59-6.75-.67-7.1-.1M210,188c0,.22-.33.4-.72.4-.9,0-2.88,2-2.88,2.9a1.14,1.14,0,0,1-.4.9c-.26.16-.4,6-.4,16.14v15.89l2.11,2.09,2.11,2.08h3.51c4.55,0,6.2-.76,7.62-3.5.57-1.1.65-3.24.65-17.08V192l-1.44-1.59C218,188,210,186.07,210,188m-55,4.19a3.06,3.06,0,0,1-1.32.6c-.7,0-2.86,2.33-2.86,3.05,0,.31-.18.56-.4.56-.64,0-.54,73.36.1,74.51a18.66,18.66,0,0,0,2.08,2.59l1.59,1.7h8.43l1.7-1.6a6.18,6.18,0,0,0,1.7-2.17,1,1,0,0,1,.4-.81c.26-.16.4-12.87.4-36.82,0-24.12-.14-36.58-.4-36.58s-.4-.27-.4-.6c0-1.25-1.81-3.8-2.69-3.8a2.06,2.06,0,0,1-1.17-.6c-.82-.82-6.08-.83-7.16,0m26.3,2.8a7.07,7.07,0,0,0-3.45,4.22c-1,2.94-1,62.2,0,64.06,3.63,7,12,6.93,15.76-.18,1.08-2.05,1.27-63,.2-64a2,2,0,0,1-.6-1c0-.76-2.1-2.83-2.87-2.83-.4,0-.73-.18-.73-.4,0-.59-7.2-.43-8.32.19"/><path id="path1" class="cls-2" d="M103,.38c.17.27-.8.41-2.74.41a8,8,0,0,0-3.25.4,4.06,4.06,0,0,1-2.2.4,4.06,4.06,0,0,0-2.2.4,1.81,1.81,0,0,1-1.3.4,13.46,13.46,0,0,0-4.59,1.25A4.43,4.43,0,0,1,85.08,4a3.31,3.31,0,0,0-1.7.59,3.8,3.8,0,0,1-1.88.6c-.6,0-1.1.19-1.1.41s-.44.4-1,.4a6.28,6.28,0,0,0-2.41.8,6.25,6.25,0,0,1-2,.8,3.62,3.62,0,0,0-1.29.35A16.7,16.7,0,0,1,72,8.67c-1.91.72-12,5.85-12,6.11s-.64.48-1.41.76A7.67,7.67,0,0,0,56.21,17a3.22,3.22,0,0,1-1.53,1,2.34,2.34,0,0,0-1.28.8,2.36,2.36,0,0,1-1.19.8,4.21,4.21,0,0,0-1.61,1.2A4.21,4.21,0,0,1,49,22a3.26,3.26,0,0,0-1.39,1,3.39,3.39,0,0,1-1.34,1C45.55,24,30,39.59,28.79,41.48a14.24,14.24,0,0,1-1.94,2.29A4.28,4.28,0,0,0,25.6,45.4a2.48,2.48,0,0,1-.85,1.23A42.62,42.62,0,0,0,20,53.69c-.31.61-.71,1.1-.89,1.1s-.33.27-.33.59c0,.64-1.46,3.37-3,5.69a10.29,10.29,0,0,0-1.25,2.49,11.29,11.29,0,0,1-1,2.34,5.92,5.92,0,0,0-.73,1.9c0,.33-.18.59-.4.59s-.4.35-.4.78a1.34,1.34,0,0,1-.35,1,7.56,7.56,0,0,0-1,2.33c-.36,1.15-.81,2.46-1,2.9A24.56,24.56,0,0,0,8.81,78,17.83,17.83,0,0,1,8,80.49,3.74,3.74,0,0,0,7.6,82a1.33,1.33,0,0,1-.4,1,2.94,2.94,0,0,0-.4,1.8,2.9,2.9,0,0,1-.4,1.8,2.46,2.46,0,0,0-.4,1.6,2.41,2.41,0,0,1-.4,1.6,6.07,6.07,0,0,0-.4,2.79c0,1.66-.17,2.6-.49,2.71-1.7.56-1.7,36,0,37a2.36,2.36,0,0,1,.56,1.46c.14,1.22,3.54,2.2,3.54,1,0-.23.34-.42.77-.42s.82-.15.9-.34a7.35,7.35,0,0,1,1.73-1.4c.88-.58,2.41-1.69,3.4-2.46a18.7,18.7,0,0,1,2.62-1.76,4.17,4.17,0,0,0,1.34-1,1.77,1.77,0,0,1,1-.64,2.36,2.36,0,0,0,1.21-.8,2.57,2.57,0,0,1,1.06-.8,11.19,11.19,0,0,0,2.29-1.4,8,8,0,0,1,2.6-1.4c.36,0,.65-.18.65-.4s.25-.4.56-.4a12.35,12.35,0,0,0,2.84-1.2,13.4,13.4,0,0,1,2.76-1.2,8.54,8.54,0,0,0,2.09-.77,17.69,17.69,0,0,1,2.68-1c.59-.14,1.07-.43,1.07-.62s.53-.36,1.18-.36A2.06,2.06,0,0,0,43,116a3.48,3.48,0,0,1,2-.4,3.48,3.48,0,0,0,2-.4,4.21,4.21,0,0,1,2.25-.4c1.23,0,1.9-.15,1.75-.4s.66-.4,2.18-.4c1.34,0,2.42-.18,2.42-.4,0-.55,23.86-.55,24.2,0a3.48,3.48,0,0,0,2,.4,3.48,3.48,0,0,1,2,.4,4.06,4.06,0,0,0,2.2.4,4.06,4.06,0,0,1,2.2.4,2.46,2.46,0,0,0,1.6.4,2.46,2.46,0,0,1,1.6.4,2.06,2.06,0,0,0,1.42.4c.65,0,1.18.14,1.18.32a6,6,0,0,0,2.3,1,40,40,0,0,1,4.66,1.89,13.62,13.62,0,0,0,2.9,1.15c.29,0,.54.18.54.4s.26.4.59.4c.62,0,1.91.68,5.21,2.74,1.1.69,2.37,1.41,2.82,1.61a4.51,4.51,0,0,1,1.34,1,1.77,1.77,0,0,0,1,.64,2.36,2.36,0,0,1,1.21.8,2.4,2.4,0,0,0,1.19.8,3.34,3.34,0,0,1,1.44,1,11.93,11.93,0,0,0,2.47,1.87c.82.47,1.5,1,1.5,1.18s.24.32.52.32a2.91,2.91,0,0,1,1.39.8,3,3,0,0,0,1.27.8,13.16,13.16,0,0,1,2.78,1.8,14.36,14.36,0,0,0,2.73,1.8,4.61,4.61,0,0,1,1.51,1.2,4.09,4.09,0,0,0,1.63,1.2,1.76,1.76,0,0,1,1,.64,4.23,4.23,0,0,0,1.34,1,17.32,17.32,0,0,1,2,1.16,18.16,18.16,0,0,0,2.3,1.29c.6.26,1.1.62,1.1.79s.36.31.8.31.8.18.8.4.35.4.78.4a1.34,1.34,0,0,1,1,.4,1.64,1.64,0,0,0,1.2.4,1.64,1.64,0,0,1,1.2.4,1.34,1.34,0,0,0,1,.4c.43,0,.78.14.78.31,0,.42,3.69,1.69,4.93,1.69a1.76,1.76,0,0,1,1.27.4,2.46,2.46,0,0,0,1.6.4,2.46,2.46,0,0,1,1.6.4,5.39,5.39,0,0,0,2.6.4,5.39,5.39,0,0,1,2.6.4,5.39,5.39,0,0,0,2.6.4,5.39,5.39,0,0,1,2.6.4c.33.54,17.27.54,17.6,0a6.91,6.91,0,0,1,3-.4,6.91,6.91,0,0,0,3-.4,4.77,4.77,0,0,1,2.42-.4c1.2,0,2.18-.18,2.18-.4s.62-.4,1.38-.4a2.5,2.5,0,0,0,1.62-.4,2.08,2.08,0,0,1,1.43-.4,5.46,5.46,0,0,0,1.88-.33l2-1a6.36,6.36,0,0,1,1.9-.67c.31,0,.57-.18.57-.4s.42-.4,1-.4c1,0,5.49-2.19,8.54-4.12a9.31,9.31,0,0,1,2-1.08c.18,0,.58-.36.9-.8a1.86,1.86,0,0,1,1.11-.8,4.64,4.64,0,0,0,1.81-1.2,5,5,0,0,1,1.7-1.2c1.22,0,3-2.65,3-4.49a3.77,3.77,0,0,1,.4-2.11,6.84,6.84,0,0,0,.4-3,7.13,7.13,0,0,1,.38-3c.52-.32.56-24.55.05-25.18a10.79,10.79,0,0,1-.47-3.56,9.13,9.13,0,0,0-.42-3.3,3.72,3.72,0,0,1-.34-2,3.58,3.58,0,0,0-.36-2,3.91,3.91,0,0,1-.6-1.83c-.13-.88-.35-2.32-.48-3.2a4,4,0,0,0-.6-1.82,1.56,1.56,0,0,1-.36-1.13,3.22,3.22,0,0,0-.59-1.67,3.39,3.39,0,0,1-.6-1.65,1.5,1.5,0,0,0-.41-1.13,1.6,1.6,0,0,1-.4-1.2,1.64,1.64,0,0,0-.4-1.2,1.6,1.6,0,0,1-.4-1.2,1.64,1.64,0,0,0-.4-1.2,1.38,1.38,0,0,1-.4-1.06,19.4,19.4,0,0,0-1.8-4.3,22.41,22.41,0,0,1-1.8-4.08,2.92,2.92,0,0,0-.8-1.47,3,3,0,0,1-.8-1.24c0-.55-2.47-5.12-3.94-7.31a10.07,10.07,0,0,1-1.26-2.23,2.46,2.46,0,0,0-.8-1.11,2.36,2.36,0,0,1-.8-1.21,1.74,1.74,0,0,0-.65-1A11.08,11.08,0,0,1,209,46a19.73,19.73,0,0,0-1.85-2.41,11,11,0,0,1-1.46-2c-.68-1.31-16.23-16.77-16.87-16.77a3.69,3.69,0,0,1-1.54-1.12,12.55,12.55,0,0,0-2.36-1.89c-.72-.42-1.3-.9-1.3-1.07s-.28-.32-.62-.32a4.46,4.46,0,0,1-1.9-1.2,5,5,0,0,0-1.72-1.2,2.08,2.08,0,0,1-1.08-.71A20.49,20.49,0,0,0,174.62,15a11.86,11.86,0,0,1-3-1.88c0-.19-.27-.34-.59-.34a5.83,5.83,0,0,1-1.9-.73l-3.22-1.8a9.36,9.36,0,0,0-2.49-1.07,6.28,6.28,0,0,1-2-.8,6.28,6.28,0,0,0-2.41-.8c-.55,0-1-.18-1-.4s-.35-.4-.78-.4a1.34,1.34,0,0,1-1-.4A1.64,1.64,0,0,0,155,6a1.64,1.64,0,0,1-1.2-.4,2.06,2.06,0,0,0-1.42-.4c-.65,0-1.18-.16-1.18-.37s-.59-.48-1.3-.63A34.58,34.58,0,0,1,145,2.76a14,14,0,0,0-2.6-.56l-3.5-.46c-.94-.13-1.7-.35-1.7-.5a8,8,0,0,0-2.9-.39,7.42,7.42,0,0,1-3-.47C131.2.19,124.78,0,116.94,0c-9.56,0-14.12.11-14,.38"/></g></g></g></svg>