<svg xmlns="http://www.w3.org/2000/svg" version="1.0" width="159.000000pt" height="235.000000pt" viewBox="0 0 159.000000 235.000000" preserveAspectRatio="xMidYMid meet">

<g transform="translate(0.000000,235.000000) scale(0.100000,-0.100000)" fill="#ed016e" stroke="none">
<path d="M593 2059 c-208 -27 -391 -137 -463 -279 -45 -90 -65 -230 -45 -330 5 -25 9 -47 9 -50 1 -3 14 -31 30 -62 34 -67 75 -113 142 -158 27 -19 51 -37 54 -41 5 -6 155 -64 230 -88 19 -6 119 -29 221 -50 271 -57 328 -91 337 -196 10 -116 -77 -182 -253 -192 -154 -9 -271 24 -342 99 -17 18 -46 62 -63 98 -45 94 -45 95 -67 98 -38 6 -342 -73 -356 -92 -35 -47 88 -280 191 -363 26 -21 49 -41 50 -45 2 -5 8 -8 14 -8 5 0 22 -8 36 -18 26 -18 184 -79 227 -88 143 -29 427 -29 530 0 148 41 243 93 324 178 168 177 175 513 13 661 -25 23 -50 47 -56 52 -50 48 -327 148 -471 171 -202 33 -316 67 -353 107 -42 46 -50 130 -18 180 36 55 168 95 274 84 127 -14 204 -61 252 -157 16 -32 36 -60 45 -64 18 -6 58 4 242 60 69 22 116 42 122 52 25 47 -80 209 -194 298 -156 120 -412 176 -662 143z" fill="#ed016e"/>
</g>
</svg>