
<svg xmlns="http://www.w3.org/2000/svg" xmlns:xlink="http://www.w3.org/1999/xlink" viewBox="0 0 172.7 150.31"><defs><style>.cls-1{fill:url(#linear-gradient);}.cls-2{fill:url(#linear-gradient-2);}.cls-3{fill:url(#linear-gradient-3);}.cls-4{fill:url(#linear-gradient-4);}.cls-5{fill:url(#linear-gradient-5);}</style><linearGradient id="linear-gradient" x1="-13.26" y1="45.63" x2="207.32" y2="160.98" gradientTransform="matrix(1, 0, 0, -1, 0, 152.02)" gradientUnits="userSpaceOnUse"><stop offset="0" stop-color="#fda9ff"/><stop offset="0.03" stop-color="#f9aaff"/><stop offset="0.24" stop-color="#dcb3ff"/><stop offset="0.37" stop-color="#d1b6ff"/><stop offset="0.89" stop-color="#4dffe5"/></linearGradient><linearGradient id="linear-gradient-2" x1="76.75" y1="81.82" x2="99.49" y2="165.18" gradientTransform="matrix(1, 0, 0, -1, 0, 152.02)" gradientUnits="userSpaceOnUse"><stop offset="0" stop-color="#16183c" stop-opacity="0.3"/><stop offset="0.87" stop-color="#16183c" stop-opacity="0"/></linearGradient><linearGradient id="linear-gradient-3" x1="-5.96" y1="39.39" x2="191.89" y2="126.95" xlink:href="#linear-gradient"/><linearGradient id="linear-gradient-4" x1="66.56" y1="58.43" x2="96.87" y2="120.74" xlink:href="#linear-gradient-2"/><linearGradient id="linear-gradient-5" x1="-14.45" y1="26.81" x2="163.2" y2="95" xlink:href="#linear-gradient"/></defs><g id="Layer_2" data-name="Layer 2"><g id="Layer_1-2" data-name="Layer 1"><path class="cls-1" d="M.1,2.91v51.5c.4,45.8,38.8,84.9,86.3,84.9s85.9-37,86.3-82.8V2.91s-12-5.8-25.6,8.1c-8.7,8.9-15.7,41.1-34.4,41.3-25,.4-42-32.8-62.3-45.2C29.1-5.89.1,2.91.1,2.91Z"/><path class="cls-2" d="M.1,2.91v51.5c.4,45.8,38.8,84.9,86.3,84.9s85.9-37,86.3-82.8V2.91s-12-5.8-25.6,8.1c-8.7,8.9-15.7,41.1-34.4,41.3-25,.4-42-32.8-62.3-45.2C29.1-5.89.1,2.91.1,2.91Z"/><path class="cls-3" d="M172.7,61.71V24.51c-4.9.8-10.9,3.2-17.2,9-9.8,9-17.6,41.5-38.6,41.8-28,.4-47.1-33.2-69.9-45.8-15.9-8.6-35.6-7.6-47-5.9v35.9c.4,49,38.9,90.8,86.3,90.8s86-39.6,86.4-88.6Z"/><path class="cls-4" d="M172.7,61.71V24.51c-4.9.8-10.9,3.2-17.2,9-9.8,9-17.6,41.5-38.6,41.8-28,.4-47.1-33.2-69.9-45.8-15.9-8.6-35.6-7.6-47-5.9v35.9c.4,49,38.9,90.8,86.3,90.8s86-39.6,86.4-88.6Z"/><path class="cls-5" d="M172.7,61.71v-8.5a40.63,40.63,0,0,0-12,7.3c-10.6,9-19,41.5-41.6,41.8-30.2.4-50.7-33.2-75.3-45.8-14.2-7.1-31.4-7.6-43.8-6.6v9.6c.4,49,38.9,90.8,86.3,90.8s86-39.6,86.4-88.6Z"/></g></g></svg>