<svg width="25" height="24" viewBox="0 0 25 24" fill="none" xmlns="http://www.w3.org/2000/svg">
<path fill-rule="evenodd" clip-rule="evenodd" d="M6.875 2C4.66586 2 2.875 3.79086 2.875 6V8V18C2.875 20.2091 4.66586 22 6.875 22H18.875C21.0841 22 22.875 20.2091 22.875 18V10C22.875 7.79086 21.0841 6 18.875 6C18.875 3.79086 17.0841 2 14.875 2H6.875ZM16.875 6H4.875C4.875 4.89543 5.77043 4 6.875 4H14.875C15.9796 4 16.875 4.89543 16.875 6ZM4.875 18V8H18.875C19.9796 8 20.875 8.89543 20.875 10V18C20.875 19.1046 19.9796 20 18.875 20H6.875C5.77043 20 4.875 19.1046 4.875 18ZM14.875 13C14.3227 13 13.875 13.4477 13.875 14C13.875 14.5523 14.3227 15 14.875 15H17.875C18.4273 15 18.875 14.5523 18.875 14C18.875 13.4477 18.4273 13 17.875 13H14.875Z" fill="#5599FF"/>
</svg>
