<svg width="24" height="24" viewBox="0 0 24 24" fill="none" xmlns="http://www.w3.org/2000/svg">
<g clip-path="url(#clip0_78_608)">
<path d="M9 10C10.1046 10 11 9.10457 11 8C11 6.89543 10.1046 6 9 6C7.89543 6 7 6.89543 7 8C7 9.10457 7.89543 10 9 10Z" fill="black" stroke="white" stroke-width="2" stroke-linecap="round"/>
<path d="M15 18C16.1046 18 17 17.1046 17 16C17 14.8954 16.1046 14 15 14C13.8954 14 13 14.8954 13 16C13 17.1046 13.8954 18 15 18Z" fill="black" stroke="white" stroke-width="2" stroke-linecap="round"/>
<path d="M11 8H20H11Z" fill="black"/>
<path d="M11 8H20" stroke="white" stroke-width="2" stroke-linecap="round"/>
<path d="M4 8H7H4Z" fill="black"/>
<path d="M4 8H7" stroke="white" stroke-width="2" stroke-linecap="round"/>
<path d="M17 16H20H17Z" fill="black"/>
<path d="M17 16H20" stroke="white" stroke-width="2" stroke-linecap="round"/>
<path d="M4 16H13H4Z" fill="black"/>
<path d="M4 16H13" stroke="white" stroke-width="2" stroke-linecap="round"/>
</g>
<defs>
<clipPath id="clip0_78_608">
<rect width="24" height="24" fill="white"/>
</clipPath>
</defs>
</svg>
