<svg width="24" height="24" viewBox="0 0 24 24" fill="none" xmlns="http://www.w3.org/2000/svg">
<g clip-path="url(#clip0_78_605)">
<path fill-rule="evenodd" clip-rule="evenodd" d="M11 18.9999C11 19.5522 11.4477 19.9999 12 19.9999C12.5523 19.9999 13 19.5522 13 18.9999V12.9999H19C19.5523 12.9999 20 12.5522 20 11.9999C20 11.4476 19.5523 10.9999 19 10.9999H13V4.99988C13 4.44759 12.5523 3.99988 12 3.99988C11.4477 3.99988 11 4.44759 11 4.99988V10.9999H5C4.44772 10.9999 4 11.4476 4 11.9999C4 12.5522 4.44772 12.9999 5 12.9999H11V18.9999Z" fill="white"/>
</g>
<defs>
<clipPath id="clip0_78_605">
<rect width="24" height="24" fill="white"/>
</clipPath>
</defs>
</svg>
