<?xml version="1.0" encoding="utf-8"?>
<!-- Generator: Adobe Illustrator 25.4.3, SVG Export Plug-In . SVG Version: 6.00 Build 0)  -->
<svg fill="none" xmlns="http://www.w3.org/2000/svg" viewBox="0 -140 940 940">
    <path d="M388.66 117.92c-126.63 48.61-138.23 173.1-174.54 231.24-36.74 58.83-120.91 91.29-109.4 121.27 11.51 29.98 95.78-2.22 162.45 16.91 65.88 18.9 157.8 103.66 284.43 55.05 64.51-24.76 111.22-75.73 132.7-136.1 2.31-6.48-2.01-13.41-8.86-14.05-4.26-.4-8.35 1.83-10.27 5.65-19.43 38.7-52.76 70.57-96.38 87.31-72.01 27.64-150.8 5.94-199.19-48.49-10.99-12.36-20.39-26.43-27.81-41.98-2.04-4.28-3.98-8.63-5.7-13.13-1.73-4.5-3.2-9.03-4.55-13.58 38.06-17.74 81.98-36.53 131.77-55.64 48.82-18.74 93.25-33.94 132.81-46.1 26.76-8.22 51.29-15.06 73.44-20.65 1.6-.4 3.18-.8 4.75-1.19 3.35-.83 6.79.96 8.03 4.18l.02.06c.73 1.91 1.36 3.83 2.04 5.75 4.38 12.39 7.66 24.91 9.83 37.46.95 5.49 6.95 8.48 11.87 5.84 18.18-9.76 34.81-19.28 49.67-28.44 55.37-34.1 86.07-63.02 79.77-79.41-6.3-16.39-48.45-17.34-112.42-5.64-20.33 3.72-42.87 8.72-67.16 14.91-4.2 1.07-8.45 2.18-12.75 3.32-20.44 5.42-42 11.63-64.45 18.58-41.75 12.93-86.54 28.42-132.78 46.17-43.26 16.61-84.26 33.83-121.86 50.99-.46-72.83 43.57-141.68 115.58-169.32 43.61-16.74 89.71-15.37 130.05.4 3.98 1.56 8.51.48 11.42-2.67 4.66-5.06 3.23-13.09-2.82-16.37-56.36-30.47-125.18-37.09-189.69-12.33Z" fill="#000"/>
</svg>
