<?xml version="1.0" encoding="UTF-8"?>
<svg
      xmlns="http://www.w3.org/2000/svg"
      xmlnsXlink="http://www.w3.org/1999/xlink"
      width="256"
      height="256"
      version="1.1"
      viewBox="0 0 256 256"
    >
      <defs>
        <path
          id="path-1"
          d="M99.736396 0.19078667L99.736396 38.266667 0.00028885682 38.266667 0.00028885682 0.19078667z"
        ></path>
        <linearGradient
          id="linearGradient-3"
          x1="30.812"
          x2="30.812"
          y1="-99.824"
          y2="61.933"
          gradientTransform="scale(1.61846 .61787)"
          gradientUnits="userSpaceOnUse"
        >
          <stop offset="0%" stopColor="#B3F9BA"></stop>
          <stop offset="100%" stopColor="#F6FB8C"></stop>
        </linearGradient>
        <linearGradient
          id="linearGradient-4"
          x1="30.822"
          x2="30.822"
          y1="20.113"
          y2="178.393"
          gradientTransform="scale(1.62221 .61644)"
          gradientUnits="userSpaceOnUse"
        >
          <stop offset="0%" stopColor="#B1FFBF"></stop>
          <stop offset="100%" stopColor="#FFF16D"></stop>
        </linearGradient>
        <linearGradient
          id="linearGradient-5"
          x1="37.417"
          x2="37.417"
          y1="12.027"
          y2="147.328"
          gradientTransform="scale(1.3363 .74833)"
          gradientUnits="userSpaceOnUse"
        >
          <stop offset="0%" stopColor="#B3F9BA"></stop>
          <stop offset="100%" stopColor="#F6FB8C"></stop>
        </linearGradient>
        <path
          id="path-6"
          d="M57.625925 0.77825L57.625925 108.69224 0.69300706 108.69224 0.69300706 0.77825z"
        ></path>
        <path d="M99.736396 0.19078667L99.736396 38.266667 0.00028885682 38.266667 0.00028885682 0.19078667z"></path>
        <path d="M57.625925 0.77825L57.625925 108.69224 0.69300706 108.69224 0.69300706 0.77825z"></path>
      </defs>
      <circle
        cx="128"
        cy="128"
        r="128"
        fill="#25435a"
        fillOpacity="1"
        fillRule="evenodd"
        strokeWidth="7"
        opacity="0.98"
      ></circle>
      <g
        fill="none"
        fillRule="evenodd"
        stroke="none"
        strokeWidth="1"
        transform="matrix(1.12495 0 0 1.12495 113.764 89.095)"
      >
        <g>
          <g transform="matrix(1.42229 0 0 1.42229 -58.46 -51.654)">
            <g transform="translate(0 74)">
              <mask id="mask-2" fill="#fff">
                <use
                  width="100%"
                  height="100%"
                  x="0"
                  y="0"
                  xlinkHref="#path-1"
                ></use>
              </mask>
              <path
                fill="url(#linearGradient-3)"
                d="M49.772 19.57c-3.515 0-6.78-.737-9.446-2.13L11.622 2.431 3.02 7.601c-4.089 2.456-4.017 6.22.159 8.405l39.7 20.758c1.928 1.007 4.393 1.503 6.892 1.503 2.916 0 5.876-.675 8.079-1.998l38.865-23.356c4.089-2.457 4.017-6.222-.16-8.405L88.304.191 60.69 16.786c-2.989 1.795-6.866 2.784-10.918 2.784"
                mask="url(#mask-2)"
              ></path>
            </g>
            <path
              fill="url(#linearGradient-4)"
              d="M96.812 53.657L89.92 50l-16.048 9.785-2.755 1.68-2.754 1.68-7.513 4.58c-2.996 1.83-6.885 2.834-10.947 2.834-3.523 0-6.798-.75-9.47-2.166l-8.608-4.567-2.849-1.51-2.849-1.511-15.86-8.416-7.238 4.414c-4.1 2.5-4.03 6.329.158 8.55l8.277 4.392 2.849 1.51 2.848 1.512 25.833 13.705C44.926 87.497 47.399 88 49.904 88c2.923 0 5.891-.685 8.099-2.031l24.836-15.144 2.755-1.68 2.754-1.68 8.624-5.258c4.099-2.498 4.027-6.329-.16-8.55"
            ></path>
            <path
              fill="url(#linearGradient-5)"
              d="M96.812 31.252l-39.806-20.75C55.074 9.496 52.602 9 50.096 9c-2.923 0-5.892.675-8.1 1.997L3.03 34.345c-4.1 2.456-4.03 6.218.158 8.401l6.892 3.593 2.849 1.485 2.849 1.485 15.86 8.269 2.848 1.483 2.85 1.487 5.659 2.95C44.926 64.506 47.399 65 49.904 65c2.923 0 5.891-.675 8.099-1.997l4.662-2.794 2.755-1.65 2.754-1.65 16.049-9.616 2.755-1.65 2.754-1.65 7.24-4.338c4.099-2.456 4.027-6.22-.16-8.403"
            ></path>
          </g>
          <g transform="translate(128)">
            <mask fill="#fff">
              <use
                width="100%"
                height="100%"
                x="0"
                y="0"
                xlinkHref="#path-6"
              ></use>
            </mask>
          </g>
        </g>
      </g>
    </svg>