<svg xmlns="http://www.w3.org/2000/svg" viewBox="0 0 51.9 51.9"><defs><style>.cls-1{fill:none;stroke:#fff;stroke-width:2px;}.cls-2{fill:#fff;fill-rule:evenodd;}</style></defs><g id="Layer_2" data-name="Layer 2"><g id="Layer_1-2" data-name="Layer 1"><g id="Symbols"><g id="LOGO-NEW"><path id="Fill-1" class="cls-1" d="M50.9,26A25,25,0,1,1,26,1a24.95,24.95,0,0,1,25,25"/><polygon id="Fill-3" class="cls-2" points="36.28 19.72 29.68 19.44 34.16 14.59 32.36 12.79 27.5 17.26 27.23 10.66 24.68 10.66 24.41 17.26 19.56 12.78 17.75 14.58 22.23 19.44 15.62 19.7 15.62 22.25 22.22 22.52 17.74 27.38 19.55 29.18 24.33 24.78 24.54 35.47 20.72 35.75 20.72 38.12 24.59 38.42 24.67 42.13 27.22 42.13 27.29 38.42 31.21 38.13 31.21 35.75 27.35 35.47 27.57 24.78 32.34 29.19 34.15 27.39 29.68 22.53 36.28 22.27 36.28 19.72"/></g></g></g></g></svg>