<svg
      xmlns="http://www.w3.org/2000/svg"
      x="0"
      y="0"
      version="1"
      viewBox="0 0 32 32"
      xmlSpace="preserve"
    >
      <circle cx="16" cy="16" r="16" fill="#0A0E2D"></circle>
      <g transform="translate(-442 -265)">
        <path fill="none" d="M446 270H470.1V294.1H446z"></path>
        <g transform="translate(231.196 -160.618)">
          <path
            fill="#F2B705"
            d="M226.6 431.1c-4.8 0-8.6 3.9-8.6 8.6 0 .5.1 1.1.2 1.6l1.1-.8c2-1.3 5.1-1.3 7.1 0l1.2.8.6.4c1.8 1.2 4.6 1.2 6.4 0l.5-.4c1-4.7-2.1-9.3-6.7-10.2-.7.1-1.2 0-1.8 0z"
          ></path>
          <path
            fill="#53CBC8"
            d="M231.4 445c-1.3 0-2.5-.4-3.5-1l-1.8-1.2c-.9-.6-2-.9-3.3-.9-1.2 0-2.4.3-3.3.9l-1.2.8c-.2.2-.5.1-.7-.1-.2-.2-.1-.5.1-.7l1.2-.8c1-.7 2.4-1.1 3.8-1.1s2.8.4 3.8 1.1l1.8 1.2c1.8 1.1 4 1.1 5.8 0l.7-.5c.2-.2.5-.1.7.1.2.2.1.5-.1.7l-.7.5c-.7.6-2 1-3.3 1z"
          ></path>
          <path
            fill="#53CBC8"
            d="M222.9 448.6v-4.9-.3c0-.3.3-.5.5-.5.3 0 .5.2.5.5v10.2c0 .4-.3.6-.6.6s-.5-.3-.5-.6v-3.2l.1-1.8z"
          ></path>
          <path
            fill="#53CBC8"
            d="M221.8 446.1v2.4c0 .4-.2.7-.5.7s-.6-.3-.6-.7v-4.9c0-.4.2-.7.6-.7.3 0 .5.3.5.7v2.5z"
          ></path>
          <path
            fill="#53CBC8"
            d="M225 446.1v-1.7c0-.4.2-.7.5-.7s.6.3.6.6v3.5c0 .4-.2.6-.6.6-.3 0-.5-.2-.5-.7v-1.6z"
          ></path>
          <path
            fill="#53CBC8"
            d="M218.6 446.5v-1.7c0-.4.2-.7.5-.7s.6.3.6.6v3.5c0 .4-.2.6-.6.6-.3 0-.5-.2-.5-.7v-1.6z"
          ></path>
          <path
            fill="#53CBC8"
            d="M227.6 445c.3 0 .5.2.5.5v.9c0 .3-.2.5-.5.5s-.5-.2-.5-.5v-.9c0-.2.2-.5.5-.5z"
          ></path>
          <path
            fill="#53CBC8"
            d="M229.8 445.8c.3 0 .5.2.5.5v5.2c0 .3-.2.5-.5.5s-.5-.2-.5-.5v-5.2c-.1-.2.2-.5.5-.5z"
          ></path>
          <path
            fill="#53CBC8"
            d="M231.9 446c.3 0 .5.2.5.5v4.4c0 .3-.2.5-.5.5s-.5-.2-.5-.5v-4.4c-.1-.2.2-.5.5-.5z"
          ></path>
          <path
            fill="#53CBC8"
            d="M234 445.5c.3 0 .5.2.5.5v1.9c0 .3-.2.5-.5.5s-.5-.2-.5-.5V446c0-.2.2-.5.5-.5z"
          ></path>
        </g>
      </g>
    </svg>