
<svg  xmlns="http://www.w3.org/2000/svg" version="1.0" xml:space="preserve"  viewBox="0 0 321 359">
 <defs>
  <radialGradient id="SVGID_1_" cx="-1.9856" cy="1190.1919" r="7.2973" gradientTransform="matrix(15.599200248718262,0,0,-15.867799758911133,339.3588104248047,18933.359771728516)" gradientUnits="userSpaceOnUse">
   <stop offset="0" stop-color="#FFEAFF" stop-opacity="0.6"/>
   <stop offset="0.6807" stop-color="#A087C9"/>
   <stop offset="1" stop-color="#10002F"/>
  </radialGradient>
  <radialGradient id="SVGID_00000114049412575831458840000002196867797702799003_" cx="-1.6522" cy="1195.4847" r="7.2973" gradientTransform="matrix(38.16569900512695,0,0,-38.822898864746094,308.1136932373047,46509.201568603516)" gradientUnits="userSpaceOnUse">
   <stop offset="0" stop-color="#FFEAFF" stop-opacity="0.6"/>
   <stop offset="0.6807" stop-color="#A087C9"/>
   <stop offset="1" stop-color="#10002F"/>
  </radialGradient>
  <linearGradient id="SVGID_00000101794343617664406350000007839752255450072451_" x1="0.41727" y1="0.99315" x2="0.58267" y2="0.0066">
   <stop offset="0" stop-color="#81FFFF"/>
   <stop offset="0.6202" stop-color="#FFFFFF" stop-opacity="0"/>
  </linearGradient>
  <linearGradient id="SVGID_00000088101206765492642500000002168771150691605434_" x1="0.83573" y1="0.21098" x2="0.35101" y2="0.68811">
   <stop offset="0.2888" stop-color="#FFFFFF"/>
   <stop offset="0.7796" stop-color="#FFFFFF" stop-opacity="0"/>
  </linearGradient>
  <linearGradient id="SVGID_00000046304600556610732100000004854566504427154850_" x1="-0.00002" y1="0.49965" x2="1.00012" y2="0.49965">
   <stop offset="0" stop-color="#0002E9"/>
   <stop offset="0.9952" stop-color="#FF00C7"/>
  </linearGradient>
  <linearGradient id="SVGID_00000097502027239228655250000008298555398879433641_" x1="1.09672" y1="0.09307" x2="0.03172" y2="1.10338">
   <stop offset="0.2888" stop-color="#FFFFFF"/>
   <stop offset="0.7796" stop-color="#FFFFFF" stop-opacity="0"/>
  </linearGradient>
  <linearGradient id="SVGID_00000073695097640093743290000008248464420227229058_" x1="-0.00003" y1="0.49965" x2="1.00042" y2="0.49965">
   <stop offset="0" stop-color="#000292"/>
   <stop offset="0.9952" stop-color="#7D00C7"/>
  </linearGradient>
  <linearGradient id="SVGID_00000036948584928412960740000005643323361323405225_" x1="0.00108" y1="0.50029" x2="0.99995" y2="0.50029">
   <stop offset="0" stop-color="#000292"/>
   <stop offset="0.9952" stop-color="#BE00C7"/>
  </linearGradient>
  <linearGradient id="SVGID_00000126300546996667843230000011976713093246505916_" x1="0.98158" y1="-0.00319" x2="-0.14664" y2="1.11576">
   <stop offset="0.2888" stop-color="#FFFFFF"/>
   <stop offset="0.7796" stop-color="#FFFFFF" stop-opacity="0"/>
  </linearGradient>
  <linearGradient id="SVGID_00000115510240422856575310000005037437417197186964_" x1="-0.00244" y1="0.50215" x2="0.99526" y2="0.50215">
   <stop offset="0.2888" stop-color="#FFFFFF"/>
   <stop offset="0.7796" stop-color="#FFFFFF" stop-opacity="0"/>
  </linearGradient>
  <linearGradient id="SVGID_00000140720442907963833520000005776316088059171772_" x1="-0.00692" y1="0.49845" x2="0.99086" y2="0.49845">
   <stop offset="0.2888" stop-color="#FFFFFF"/>
   <stop offset="0.7796" stop-color="#FFFFFF" stop-opacity="0"/>
  </linearGradient>
  <linearGradient id="SVGID_00000021819110468233304330000018048449188473740938_" x1="-0.00815" y1="0.50697" x2="0.99059" y2="0.50697">
   <stop offset="0.2888" stop-color="#FFFFFF"/>
   <stop offset="0.7796" stop-color="#FFFFFF" stop-opacity="0"/>
  </linearGradient>
  <linearGradient id="SVGID_00000034790017866306671300000006208488925401732242_" x1="-0.01498" y1="0.49881" x2="0.98376" y2="0.49881">
   <stop offset="0.2888" stop-color="#FFFFFF"/>
   <stop offset="0.7796" stop-color="#FFFFFF" stop-opacity="0"/>
  </linearGradient>
  <linearGradient id="SVGID_00000183927817351885179090000010589377577425947029_" x1="0.00062" y1="0.49803" x2="0.99203" y2="0.49803">
   <stop offset="0.2888" stop-color="#FFFFFF"/>
   <stop offset="0.7796" stop-color="#FFFFFF" stop-opacity="0"/>
  </linearGradient>
  <linearGradient id="SVGID_00000016054291914350200430000016209475628289819572_" x1="0.00145" y1="0.49913" x2="0.99291" y2="0.49913">
   <stop offset="0.2888" stop-color="#FFFFFF"/>
   <stop offset="0.7796" stop-color="#FFFFFF" stop-opacity="0"/>
  </linearGradient>
 </defs>
 <g>
  <title>Layer 1</title>
  <path class="st1" d="m320.2,61.90001c-3.6,-13.7 -15,-27.5 -35.7,-42.7c-16.6,-12.2 -34.1,-19.2 -48.1,-19.2c-2.8,0 -5.3,0.3 -7.9,0.8c-6.4,1.3 -12,6 -15.5,13c-4.3,8.3 -5.3,19.4 -2.5,26.2c1,2.1 2.3,4.7 3.8,7c-13.5,8.3 -21.1,10.6 -22.2,10.9c35.1,11.9 64.4,36.8 82.8,69.2l0.3,-3.1c0.8,-8.5 3.3,-18.4 6.9,-28.5c3.6,1 7.1,1.6 10.7,1.6c9.4,0 17.6,-3.9 22.7,-10.9c4.9,-7.2 7,-16.5 4.7,-24.3z" fill="#5E12A0" id="svg_8"/>
  <path class="st2" d="m283.5,87.80001c23.2,6.5 32.6,-11.7 29.5,-23.8c-3.3,-12.2 -14,-24.6 -32.9,-38.6c-18.8,-14 -37.9,-19.7 -50.2,-17.1c-12.2,2.6 -15.8,21.5 -12.7,28.8c1.3,2.8 4.1,7 7.9,11.7c-4.8,3.4 -9.4,6 -13.2,8.3c23.4,10.6 43.8,27.2 59.1,47.9c1.8,-7 4.3,-13.2 6.6,-18.7c1.8,0.2 3.8,0.7 5.9,1.5z" fill="url(#SVGID_1_)" id="svg_9"/>
  <path d="m150.8,341.70001c78.6,0 142.4,-64.8 142.4,-144.8s-63.7,-144.8 -142.4,-144.8c-78.6,0 -142.4,64.8 -142.4,144.8s63.8,144.8 142.4,144.8z" fill="url(#SVGID_00000114049412575831458840000002196867797702799003_)" id="svg_10"/>
  <path class="st4" d="m301.3,52.00001c-19.4,-20.7 -35.7,-26.2 -55.3,-30.6c-15.3,-3.6 -11.2,-12.4 7.4,-10.6c-8.9,-3.1 -17.3,-3.9 -23.4,-2.6c-12.2,2.6 -15.8,21.5 -12.7,28.8c1.3,2.8 4.1,7 7.9,11.7c-6.9,4.7 -12.7,8 -17.6,10.6c2.3,1 5.1,2.3 8.4,4.1c8.7,4.7 18.1,12.4 18.1,12.4c-14.3,-12.4 -11.2,-18.1 8.4,-32.1c6.1,-4.4 17.3,-3.9 27.8,1.6s22.7,19.2 22.7,19.2l-11.7,22.8c0.8,0.3 1.5,0.5 2.3,0.8c7.4,2.1 13.2,1.6 17.8,-0.3c5.3,-3.4 19.3,-14.8 -0.1,-35.8z" opacity="0.6" fill="#A98698" enable-background="new" id="svg_11"/>
  <path class="st1" d="m245.8,33.90001c5.1,2.1 11.7,5.7 19.9,11.1c9.7,6.5 18.1,13.7 23.4,19.4c-8.9,11.9 -14.8,28.2 -18.3,39.6c1.8,2.6 3.8,5.2 5.6,7.8c1.8,-6.5 4.8,-16.1 8.9,-25.6c1,0.3 2.3,0.3 3.6,0.3c3.1,0 6.6,-0.5 9.4,-2.9c2,-1.6 4.3,-4.4 4.1,-9.6c0,-4.9 -3.8,-11.1 -11.7,-18.7c-5.6,-5.4 -13.2,-11.4 -20.9,-16.8c-21.9,-14.8 -37.2,-18.9 -44.1,-11.9c-4.6,4.7 -4.1,10.4 -2.5,14.5c-8.1,5.4 -15,9.3 -19.6,11.9c3.1,1 5.9,2.3 8.9,3.6c8.1,-4.3 19.8,-11.8 33.3,-22.7zm48.1,37.1c0.8,1.3 1,2.6 1,3.4c0,2.3 -0.8,3.1 -1.3,3.6c-1,0.8 -3.1,1.3 -4.8,1.3c1.6,-3.2 3.3,-5.8 5.1,-8.3zm-62.9,-38.7c0.8,-0.8 2.8,-1.3 6.1,-0.8c-2.5,2.1 -5.1,3.9 -7.6,5.7c-0.3,-1.7 0,-3.6 1.5,-4.9z" fill="#5E12A0" id="svg_12"/>
  <path class="st1" d="m150.8,43.50001c-83.3,0 -150.8,68.7 -150.8,153.4s67.5,153.4 150.8,153.4c83.3,0 150.8,-68.7 150.8,-153.4s-67.8,-153.4 -150.8,-153.4zm0,298.2c-78.7,0 -142.4,-64.8 -142.4,-144.8s63.7,-144.8 142.4,-144.8c78.7,0 142.4,64.8 142.4,144.8s-64,144.8 -142.4,144.8z" fill="#5E12A0" id="svg_13"/>
  <path d="m150.8,341.70001c78.6,0 142.4,-64.8 142.4,-144.8s-63.7,-144.8 -142.4,-144.8c-78.6,0 -142.4,64.8 -142.4,144.8s63.8,144.8 142.4,144.8z" opacity="0.6" fill="url(#SVGID_00000101794343617664406350000007839752255450072451_)" id="svg_14"/>
  <path class="st4" d="m149.8,324.10001c-77.7,-12.7 -130.4,-87 -117.7,-166.1c5.6,-35 22.9,-64.8 47.4,-86.3c-35.7,21 -62.1,57.5 -69.3,102.1c-12.5,79 40.2,153.4 117.7,166.1c43.3,7.3 85.1,-6.5 115.9,-33.4c-27.3,16 -60.4,23 -94,17.6z" opacity="0.6" fill="#A98698" enable-background="new" id="svg_15"/>
  <path d="m173.5,54.10001c-35.9,-6 -70.8,2.3 -99.3,20.7c-0.5,0.5 -1,1 -1,1c11,-6.7 27,-12.7 27,-12.7c-41.3,24.4 -54,52.1 -54,52.1c16,-31.6 63.2,-53.9 100.1,-55.4c36.9,-1.6 61.1,9.6 90.7,33.7c29.5,24.4 47.4,74.1 45.6,113.5c-1.5,39.4 -21.9,71.2 -21.9,71.2c14,-18.4 22.4,-31.9 27.8,-45.6c1,-4.1 2,-8.3 2.5,-12.7c12.6,-78.7 -39.9,-153.1 -117.5,-165.8z" opacity="0.6" fill="url(#SVGID_00000088101206765492642500000002168771150691605434_)" id="svg_16"/>
  <path d="m286,195.60001c0,75.9 -60.6,137.6 -135.2,137.6s-135.5,-61.7 -135.5,-137.6l270.7,0z" fill="url(#SVGID_00000046304600556610732100000004854566504427154850_)" id="svg_17"/>
  <path d="m275.3,195.60001c0,74.1 -57.6,134.7 -129.9,137.6c1.8,0 3.6,0 5.3,0c74.6,0 135.2,-61.7 135.2,-137.6l-10.6,0z" opacity="0.6" fill="url(#SVGID_00000097502027239228655250000008298555398879433641_)" id="svg_18"/>
  <path d="m34.4,195.60001l-19.1,0c0,75.9 60.6,137.6 135.2,137.6c3.3,0 6.4,0 9.4,-0.3c-70,-5.2 -125.5,-64.8 -125.5,-137.3z" opacity="0.7" fill="url(#SVGID_00000073695097640093743290000008248464420227229058_)" id="svg_19"/>
  <path d="m285.8,196.90001c0,-15.8 -27,-24.9 -62.9,-28c-26,-2.1 -52.2,0.5 -82.3,9.8c-26,7.8 -49.4,6.5 -66.5,4.4c-37.9,-4.4 -58.8,-4.9 -58.8,13.7c0,26.9 54,60.6 135,49c41,-6 62.1,-18.1 86.3,-26.4c26.3,-8.8 49.2,-8.5 49.2,-22.5z" fill="url(#SVGID_00000036948584928412960740000005643323361323405225_)" id="svg_20"/>
  <path class="st11" d="m195.1,131.60001c12.7,0 22.9,-10.4 22.9,-23.3s-10.3,-23.3 -22.9,-23.3c-12.7,0 -22.9,10.4 -22.9,23.3s10.2,23.3 22.9,23.3z" fill="#FFFFFF" id="svg_21"/>
  <path class="st11" d="m232.5,148.90001c5.3,0 9.7,-4.4 9.7,-9.8s-4.3,-9.8 -9.7,-9.8s-9.7,4.4 -9.7,9.8s4.4,9.8 9.7,9.8z" fill="#FFFFFF" id="svg_22"/>
  <path d="m267.2,89.60001c-0.3,0 -0.5,0 -0.5,0c-1.5,-0.3 -2.5,-1.8 -2.3,-3.6c2.3,-11.9 12,-23.3 12.5,-23.8c1,-1.3 3.1,-1.3 4.1,-0.3c1.3,1 1.3,3.1 0.3,4.1c-0.3,0.3 -9.2,10.9 -11.2,21.2c-0.4,1.6 -1.6,2.4 -2.9,2.4z" opacity="0.6" fill="url(#SVGID_00000126300546996667843230000011976713093246505916_)" id="svg_23"/>
  <path class="st13" d="m141.4,304.90001c3.9,0 7.1,-3.2 7.1,-7.3c0,-4 -3.2,-7.3 -7.1,-7.3c-3.9,0 -7.1,3.2 -7.1,7.3c0,4.1 3.1,7.3 7.1,7.3z" opacity="0.2" fill="#FFFFFF" enable-background="new" id="svg_24"/>
  <path d="m137.3,302.30001c-2.8,-2.9 -2.8,-7.5 0,-10.4c0.5,-0.5 1,-0.8 1.5,-1.3c-1,0.3 -1.8,0.8 -2.5,1.6c-2.8,2.8 -2.8,7.5 0,10.4c2.3,2.3 5.9,2.8 8.7,1.3c-2.6,1 -5.7,0.5 -7.7,-1.6z" opacity="0.6" fill="url(#SVGID_00000115510240422856575310000005037437417197186964_)" id="svg_25"/>
  <path class="st15" d="m143.9,295.60001c0.8,0 1.5,-0.7 1.5,-1.6c0,-0.9 -0.7,-1.6 -1.5,-1.6c-0.8,0 -1.5,0.7 -1.5,1.6c0,0.9 0.7,1.6 1.5,1.6z" opacity="0.3" fill="#FFFFFF" enable-background="new" id="svg_26"/>
  <path class="st13" d="m178.6,301.30001c3.9,0 7.1,-3.2 7.1,-7.3c0,-4 -3.2,-7.3 -7.1,-7.3s-7.1,3.2 -7.1,7.3c-0.1,4 3.1,7.3 7.1,7.3z" opacity="0.2" fill="#FFFFFF" enable-background="new" id="svg_27"/>
  <path d="m174.5,298.70001c-2.8,-2.8 -2.8,-7.5 0,-10.4c0.5,-0.5 1,-0.8 1.5,-1.3c-1,0.3 -1.8,0.8 -2.5,1.6c-2.8,2.8 -2.8,7.5 0,10.4c2.3,2.3 5.9,2.9 8.7,1.3c-2.6,1 -5.7,0.5 -7.7,-1.6z" opacity="0.6" fill="url(#SVGID_00000140720442907963833520000005776316088059171772_)" id="svg_28"/>
  <path class="st15" d="m181.1,291.90001c0.8,0 1.5,-0.7 1.5,-1.6c0,-0.9 -0.7,-1.6 -1.5,-1.6c-0.8,0 -1.5,0.7 -1.5,1.6c0,0.9 0.7,1.6 1.5,1.6z" opacity="0.3" fill="#FFFFFF" enable-background="new" id="svg_29"/>
  <path class="st13" d="m160.2,318.10001c3,0 5.3,-2.4 5.3,-5.4s-2.4,-5.4 -5.3,-5.4c-3,0 -5.3,2.4 -5.3,5.4s2.4,5.4 5.3,5.4z" opacity="0.2" fill="#FFFFFF" enable-background="new" id="svg_30"/>
  <path d="m157.2,316.00001c-2,-2.1 -2,-5.7 0,-7.8c0.3,-0.3 0.8,-0.5 1,-0.8c-0.8,0.3 -1.3,0.8 -1.8,1.3c-2,2.1 -2,5.7 0,7.8c1.8,1.8 4.3,2.1 6.6,0.8c-2,0.8 -4.3,0.3 -5.8,-1.3z" opacity="0.6" fill="url(#SVGID_00000021819110468233304330000018048449188473740938_)" id="svg_31"/>
  <path class="st15" d="m162,310.90001c0.6,0 1,-0.5 1,-1c0,-0.6 -0.5,-1 -1,-1s-1,0.5 -1,1c0,0.5 0.4,1 1,1z" opacity="0.3" fill="#FFFFFF" enable-background="new" id="svg_32"/>
  <path class="st13" d="m193.1,314.20001c3,0 5.3,-2.4 5.3,-5.4c0,-3 -2.4,-5.4 -5.3,-5.4c-3,0 -5.3,2.4 -5.3,5.4c-0.1,3 2.3,5.4 5.3,5.4z" opacity="0.2" fill="#FFFFFF" enable-background="new" id="svg_33"/>
  <path d="m190,312.20001c-2,-2.1 -2,-5.7 0,-7.8c0.3,-0.3 0.8,-0.5 1,-0.8c-0.8,0.3 -1.3,0.8 -1.8,1.3c-2,2.1 -2,5.7 0,7.8c1.8,1.8 4.3,2.1 6.6,0.8c-2,0.7 -4.3,0.2 -5.8,-1.3z" opacity="0.6" fill="url(#SVGID_00000034790017866306671300000006208488925401732242_)" id="svg_34"/>
  <path class="st15" d="m194.9,307.00001c0.6,0 1,-0.5 1,-1c0,-0.6 -0.5,-1 -1,-1s-1,0.5 -1,1c-0.1,0.5 0.4,1 1,1z" opacity="0.3" fill="#FFFFFF" enable-background="new" id="svg_35"/>
  <path class="st13" d="m111.1,302.30001c6.5,0 11.7,-5.3 11.7,-11.9c0,-6.6 -5.2,-11.9 -11.7,-11.9c-6.5,0 -11.7,5.3 -11.7,11.9c-0.1,6.6 5.2,11.9 11.7,11.9z" opacity="0.2" fill="#FFFFFF" enable-background="new" id="svg_36"/>
  <path d="m104.4,297.90001c-4.6,-4.7 -4.6,-12.2 0,-16.8c0.8,-0.8 1.5,-1.3 2.5,-1.8c-1.5,0.5 -2.8,1.6 -4.1,2.6c-4.6,4.7 -4.6,12.2 0,16.8c3.8,3.9 9.7,4.7 14.3,1.8c-4.3,1.8 -9.3,1 -12.7,-2.6z" opacity="0.6" fill="url(#SVGID_00000183927817351885179090000010589377577425947029_)" id="svg_37"/>
  <path class="st15" d="m115.1,286.80001c1.4,0 2.5,-1.2 2.5,-2.6c0,-1.4 -1.1,-2.6 -2.5,-2.6c-1.4,0 -2.5,1.2 -2.5,2.6c0,1.4 1.1,2.6 2.5,2.6z" opacity="0.3" fill="#FFFFFF" enable-background="new" id="svg_38"/>
  <path class="st13" d="m215.7,273.00001c6.5,0 11.7,-5.3 11.7,-11.9c0,-6.6 -5.2,-11.9 -11.7,-11.9c-6.5,0 -11.7,5.3 -11.7,11.9c0,6.6 5.3,11.9 11.7,11.9z" opacity="0.2" fill="#FFFFFF" enable-background="new" id="svg_39"/>
  <path d="m208.9,268.60001c-4.6,-4.7 -4.6,-12.2 0,-16.8c0.8,-0.8 1.5,-1.3 2.5,-1.8c-1.5,0.5 -2.8,1.6 -4.1,2.6c-4.6,4.7 -4.6,12.2 0,16.8c3.8,3.9 9.7,4.7 14.3,1.8c-4.3,1.8 -9.2,1.1 -12.7,-2.6z" opacity="0.6" fill="url(#SVGID_00000016054291914350200430000016209475628289819572_)" id="svg_40"/>
  <path class="st15" d="m219.8,257.50001c1.4,0 2.5,-1.2 2.5,-2.6s-1.1,-2.6 -2.5,-2.6c-1.4,0 -2.5,1.2 -2.5,2.6s1.1,2.6 2.5,2.6z" opacity="0.3" fill="#FFFFFF" enable-background="new" id="svg_41"/>
 </g>
</svg>